<?xml version="1.0" standalone="no"?><!DOCTYPE svg PUBLIC "-//W3C//DTD SVG 1.1//EN" "http://www.w3.org/Graphics/SVG/1.1/DTD/svg11.dtd"><svg t="1749635995308" class="icon" viewBox="0 0 1024 1024" version="1.1" xmlns="http://www.w3.org/2000/svg" p-id="17388" width="64" height="64" xmlns:xlink="http://www.w3.org/1999/xlink"><path d="M360.896 183.968L269.984 95.872s-14.208-17.472 9.824-37.248c24.16-19.648 25.376-10.912 33.504-5.472s135.2 130.816 135.2 130.816h-87.616z m301.952 3.264l90.912-88.096s14.208-17.472-9.824-37.248c-24.032-19.648-25.376-10.912-33.504-5.472s-135.2 130.816-135.2 130.816h87.616z m341.152 163.104c-3.264-137.984-123.168-164.192-123.168-164.192s-614.336-4.96-742.496 0C10.176 222.304 20 350.336 20 350.336s1.696 274.272-0.128 413.12c13.824 138.848 120.864 160.928 120.864 160.928s42.72 0.864 73.92 0.864c3.264 8.992 5.696 52.544 54.24 52.544 48.416 0 54.24-52.544 54.24-52.544s354.88-1.696 384.352-1.696c1.696 14.816 8.992 54.976 57.536 54.24 48.416-0.864 51.712-57.536 51.712-57.536s16.384-1.696 65.664 0c114.944-21.376 121.6-156.064 121.6-156.064s-1.568-275.872 0-413.856z m-98.912 439.232c0 21.728-17.248 39.456-38.464 39.456H167.2c-21.248 0-38.464-17.6-38.464-39.456V326.336c0-21.728 17.248-39.456 38.464-39.456h699.424c21.248 0 38.464 17.6 38.464 39.456v463.232zM202.4 457.152l205.344-39.456 15.52 77.184-203.648 39.456z m638.976 0l-205.344-39.456-15.648 77.184 203.776 39.456z m-418.08 191.392s45.152 81.312 95.264-26.336c48.416 105.088 101.824 27.904 101.824 27.904l30.336 19.776s-56.672 91.136-131.424 22.208c-63.232 68.928-129.728-21.952-129.728-21.952l33.728-21.6z" fill="#cdcdcd" p-id="17389"></path></svg>